PathFileType	4	(X/Y/Z)	Patient4_TMGait_0pt2_01_right_05.trc.trc
DataRate	CameraRate	NumFrames	NumMarkers	Units	OrigDataRate	OrigDataStartFrame	OrigNumFrames
45.901639344262	45.901639344262	4	33	mm	45.901639344262	53	       141
Frame#	Time	Sacral			L.Shoulder			Chest			R.Shoulder			Neck			R.ASIS			L.ASIS			R.Thigh.Superior			R.Thigh.Lateral			R.Thigh.Inferior			R.Patella			L.Thigh.Superior			L.Thigh.Lateral			L.Thigh.Inferior			L.Patella			L.Shank.Superior			L.Shank.Lateral			L.Shank.Inferior			R.Shank.Superior			R.Shank.Lateral			R.Shank.Inferior			R.Heel			R.Midfoot.Superior			R.Midfoot.Lateral			R.Toe			L.Heel			L.Midfoot.Lateral			L.Midfoot.Superior			L.Toe			L.Elbow			L.Wrist			R.Elbow			R.Wrist			
		X1	Y1	Z1	X2	Y2	Z2	X3	Y3	Z3	X4	Y4	Z4	X5	Y5	Z5	X6	Y6	Z6	X7	Y7	Z7	X8	Y8	Z8	X9	Y9	Z9	X10	Y10	Z10	X11	Y11	Z11	X12	Y12	Z12	X13	Y13	Z13	X14	Y14	Z14	X15	Y15	Z15	X16	Y16	Z16	X17	Y17	Z17	X18	Y18	Z18	X19	Y19	Z19	X20	Y20	Z20	X21	Y21	Z21	X22	Y22	Z22	X23	Y23	Z23	X24	Y24	Z24	X25	Y25	Z25	X26	Y26	Z26	X27	Y27	Z27	X28	Y28	Z28	X29	Y29	Z29	X30	Y30	Z30	X31	Y31	Z31	X32	Y32	Z32	X33	Y33	Z33	

53	10.462857142857	782.897000903149	990.133352852123	591.130539910624	953.699408560185	1413.334333384363	389.915476244064	1055.944533857950	1356.099287581084	556.543142561682	966.974941151731	1433.929486914381	725.732927152726	936.075610055291	1482.429472319203	545.517607155785	1016.405139040794	937.956421849133	707.978059134442	998.097491853696	949.688397165039	434.405027330484	1058.554287510438	731.943817451367	664.568248573319	979.824658454514	615.410080460099	717.042236599173	1053.010320426181	568.703171072170	631.132232336210	1051.724761800432	473.284911474277	631.730745936705	1077.141710068083	756.333049782215	467.842042500638	1029.098292336599	633.545207336545	381.921928825680	1123.997521689541	564.278157531352	448.296588321842	1131.298517385456	475.715373990392	434.942481347959	1062.703658012850	414.196855551924	415.948916107955	921.644248590421	378.942716464529	360.506741687702	906.685557975586	243.335941929203	397.233781780590	1005.962353748256	387.492550962202	633.611704474617	920.485763281588	293.150973771318	692.675761612730	941.790763308753	197.586887184781	622.703751139953	781.929912409742	45.257527397323	591.379470237584	954.206121338933	95.661907641879	626.844923193188	865.335325788618	37.897516502395	666.429799610590	1073.721122367983	40.678321610957	657.953206552464	717.132647813693	188.412256233276	432.175015626901	765.554007757591	148.638169882966	342.952139435441	871.893803764857	139.399326275625	358.341747901471	933.463857163361	30.433721489651	309.845125691640	922.635038139552	1054.590478953521	292.337789832282	1006.662233132836	807.877750583880	301.356614212016	981.733733536824	1086.983634886217	859.764087249645	1145.133697504634	882.856798670167	865.636922984737	
54	10.484642857143	780.927165696747	988.489680869146	594.577996075649	948.596252220753	1411.673962810134	390.702690996292	1053.553716838090	1354.382956856433	555.645904604245	967.611997350567	1432.427338960987	726.349157330646	933.835820128741	1480.913219130508	546.568442407787	1015.904899146678	936.479989858333	708.325418668993	994.050979609661	948.494504394369	435.181924413312	1058.352562194617	730.690846569425	664.428663414850	980.411669494057	613.840923210038	717.113403141902	1053.139282757905	567.545689671104	630.433399355180	1052.003082900814	471.619358483831	630.790754583588	1078.188246882474	759.883194342608	469.538376850794	1034.695555163148	635.475215345758	383.530342422325	1131.894320102246	569.223728310948	450.269773576064	1141.538592025465	480.073498362991	436.586593667627	1072.796752085000	417.286335935079	417.998460718655	930.338923016922	382.396387096398	364.674331014922	916.297116248580	246.342663028261	400.912839553914	1005.158990202010	386.007305955475	632.985624633738	919.092342064927	292.391328692204	692.544535697812	938.853429966976	196.710187779999	622.483371386812	777.551570696653	45.259607379252	591.504085775090	949.862929345974	95.568880640800	626.828838813618	860.988807990121	37.848426996436	666.561210044270	1069.383237623349	40.588705455991	657.973648743243	726.898305761600	191.582227300711	438.497263370207	774.094778866264	151.955096572728	348.313323426920	880.958992776798	142.288484341031	362.360611416089	941.490151017194	30.935649496876	312.007057577325	908.044635775816	1053.149341737912	296.762359052091	973.918508245130	800.558705226275	309.938039558775	996.508029137715	1086.656320335919	860.895571161934	1173.593478918994	894.346123161749	862.666102006868	
55	10.506428571429	779.034377924828	987.195926585592	597.758756299265	943.540963273804	1410.433834147858	391.425717154203	1051.268711963428	1352.953792198421	554.520759138195	968.538595575063	1431.202231251179	726.753416335179	931.745579827324	1479.710683827676	547.522636034989	1015.428825025762	935.209133099224	708.279000145909	989.985728854814	947.698876358864	435.592738012124	1057.857037800299	729.536085919198	663.970778585874	980.547991931956	612.514542788113	716.975018286058	1052.743732096116	566.500578833018	629.549694781406	1051.641137600144	470.163260367460	629.695584367171	1078.493273684260	763.428861393767	470.684400826407	1038.950277008412	637.621432832443	384.702097490042	1138.190721088699	574.183148451564	451.601639018682	1150.130537745126	484.744246416185	437.720389955212	1081.830808190573	420.550624760551	419.570480164418	938.648440227026	384.496379829590	368.125151348404	926.869513196551	248.058055776017	404.105605111279	1003.872580416056	384.742478413029	632.257315812722	917.338236860086	291.768012611677	692.331508205317	935.725213169320	195.966945165013	622.234317728721	773.200716572653	45.282006300679	591.661853562631	945.569086875941	95.556804679834	626.918818860153	856.642315751765	37.817681685579	666.689332816497	1065.038847098722	40.503331725095	657.994192304037	738.405793056418	190.670941038585	443.783357901184	785.293439756106	152.082244197351	352.914283569652	892.423323746234	144.028374772845	366.068940982981	954.063687412342	31.963459311906	314.336644237416	893.385217288539	1052.699528142058	300.564096800594	942.800657360055	796.158256039567	318.668031127665	1011.727846579823	1087.321579081535	861.593679227959	1201.834194883977	908.103842976009	858.672552814564	
56	10.528214285714	777.232634899377	986.344895052470	600.651903249226	938.599029086756	1409.679613181294	392.081847937965	1049.132725234229	1351.886174908927	553.172894577745	969.774998700496	1430.335166137961	726.925308158297	929.849738655918	1478.891882696041	548.361447243216	1014.975714426527	934.197434336892	707.840490079655	985.940393846679	947.375642310602	435.631326284151	1056.969781463935	728.513273514098	663.205627615722	980.095282589126	611.494575655046	716.663181154889	1051.652219149466	565.600142953761	628.527795564644	1050.433690157993	468.981040859313	628.506781097878	1078.014879909806	766.872837150245	471.284629903272	1041.747345260066	639.892529566745	385.425542950117	1142.697818796022	578.971654693009	452.313355669483	1156.856134365806	489.594605348147	438.342220560191	1089.681484213302	423.882230688299	420.605442009293	946.666898669761	385.008802059466	370.616954779767	938.575910994731	248.336429598595	406.584911679562	1001.948823765486	383.752804520284	631.480170652611	915.096490542137	291.296736956490	692.065605614760	932.334688926306	195.386593917658	621.977194284192	768.867652902956	45.309772115778	591.852948806988	941.301697945514	95.608976623368	627.092163533865	852.288340931148	37.798073256315	666.815220777774	1060.681642629610	40.430959149188	658.013938367227	752.004188614106	185.526107103673	447.631818416626	799.519465369596	148.892643485823	356.395749750286	906.568580083635	144.444731740006	369.181565875137	971.440836553399	33.536786196751	316.633214820008	878.754391440987	1053.280130610681	303.768915984985	913.691439188831	794.417577666410	327.376364103783	1027.281022010430	1089.060124407587	861.821824684161	1229.532551429228	924.159352122726	853.636570960390	
